<svg id="Layer_1" data-name="Layer 1" xmlns="http://www.w3.org/2000/svg" viewBox="0 0 834.73 172.77"><defs><style>.cls-1{fill:#72932b;}</style></defs><title>Logo</title><path class="cls-1" d="M119.31,116a12.82,12.82,0,0,0,12.82,12.83H143.8v-29a7.3,7.3,0,0,0-7.3-7.3H119.31Z"/><path class="cls-1" d="M216.65,57.79A28.21,28.21,0,0,0,188.43,86v86.76h8A16.78,16.78,0,0,0,213.19,156V86a3.46,3.46,0,0,1,3.46-3.46h29.24A20.21,20.21,0,0,0,266.1,62.34V57.79Z"/><path class="cls-1" d="M150.23,57.79H143.8V30.29A30.29,30.29,0,0,0,112.83,0,30.81,30.81,0,0,0,89.16,12.27L0,128.87H24.5a12.79,12.79,0,0,0,10.18-5L61.14,89.24a17,17,0,0,1,13.54-6.69h75.55A3.46,3.46,0,0,1,153.69,86v70a16.78,16.78,0,0,0,16.78,16.78h8V86A28.21,28.21,0,0,0,150.23,57.79Zm-30.92,0H96.91a20.57,20.57,0,0,0-12.82,4.48l-5.66,4.52,6.79-9h0l29.79-39c.09-.11.19-.21.28-.31a3.24,3.24,0,0,1,.31-.24,2.27,2.27,0,0,1,1-.38,2.17,2.17,0,0,1,.36,0,2.41,2.41,0,0,1,2.35,2.42Z"/><path d="M336,96.19H302l-5.57,12.25H283.19l29.15-65h13.37l29.16,65H341.5ZM319,57.1,307,84.77H331.1Z"/><path d="M360.43,108.44V60.26c0-12.26,8.27-17.92,17.46-17.92a22.15,22.15,0,0,1,11.89,3.71L385.6,54.5a12.64,12.64,0,0,0-7-2.41c-3.9,0-6.87,2.6-6.87,8.17v3.06h13.47v9.94H371.76v35.18Z"/><path d="M403.7,62.67l.84,5.29c3.52-5.66,8.26-6.5,12.9-6.5s9.29,1.86,11.79,4.37l-5.1,9.84a11.32,11.32,0,0,0-8.17-3c-5.95,0-11.42,3.15-11.42,11.6v24.14H393.21V62.67Z"/><path d="M445.85,49.76c0,8.83-13.37,8.83-13.37,0S445.85,40.94,445.85,49.76ZM433.5,62.48v46h11.33v-46Z"/><path d="M494.32,102.6a23.61,23.61,0,0,1-17.65,7.24c-13.27,0-24.32-8-24.32-24.24s11-24.23,24.32-24.23a21.74,21.74,0,0,1,16.53,6.78l-7.15,7.52a13.91,13.91,0,0,0-9.19-3.62c-7.61,0-13.18,5.57-13.18,13.55,0,8.73,5.94,13.37,13,13.37a13.76,13.76,0,0,0,10-3.8Z"/><path d="M535.63,62.67h10.86v45.77H535.81l-.55-6.68c-2.6,5.38-9.75,8-14.86,8.08-13.55.09-23.58-8.27-23.58-24.33,0-15.78,10.49-24.05,23.86-24,6.13,0,12,2.87,14.58,7.42ZM508.15,85.51c0,8.73,6,13.93,13.55,13.93,17.83,0,17.83-27.76,0-27.76C514.18,71.68,508.15,76.78,508.15,85.51Z"/><path d="M589.76,108.44v-24c0-7-3.81-12.26-11-12.26-7,0-11.7,5.85-11.7,12.82v23.39H555.77V62.58h10.12l.75,6.22c4.64-4.55,9.28-6.87,15-6.87,10.77,0,19.4,8.08,19.4,22.47v24Z"/><path d="M614.14,48.74V62.58h15.6v3.8h-15.6v28c0,6.22,1.3,10.59,8.45,10.59a17.09,17.09,0,0,0,7.06-1.86l1.58,3.71a20,20,0,0,1-8.64,2.32c-9.75,0-12.9-5.75-12.9-14.76V49.21Z"/><path d="M644.5,62.58l.19,8.17c2.88-6.22,9.37-8.64,15.22-8.64a17.94,17.94,0,0,1,9.85,2.7l-2,3.71a14.69,14.69,0,0,0-7.8-2.14A15.24,15.24,0,0,0,644.78,81.7v26.74h-4.55V62.58Z"/><path d="M720.73,62.58v45.86h-4.55V98.7a21.47,21.47,0,0,1-18.76,10.49c-12.81,0-23.3-9.66-23.3-23.68S684.61,62,697.42,62c7.43,0,15,3.44,18.76,10.58v-10ZM678.67,85.51c0,11.51,8.35,19.22,18.75,19.22,25.54,0,25.54-38.35,0-38.35C687,66.38,678.67,74,678.67,85.51Z"/><path d="M777.08,43.45v65h-4.45V98.32a21.6,21.6,0,0,1-19.13,10.87c-12.81,0-22.93-8.45-22.93-23.68s10.21-23.68,23-23.68c7.89,0,15.32,3.35,19,10.77V43.45ZM735,85.51c0,12.72,8.45,19.22,18.76,19.22,10.77,0,18.75-7.89,18.75-19.31S764.36,66.2,753.78,66.2C743.47,66.2,735,72.6,735,85.51Z"/><path d="M788.59,85.51c0-13.74,10.4-23.68,23.31-23.68s24.41,7.9,22.65,25.82H793.23c.93,10.77,9.19,17,18.67,17,6,0,13.09-2.42,16.52-7l3.25,2.6c-4.46,5.85-12.44,8.82-19.77,8.82C799,109.09,788.59,100.09,788.59,85.51Zm41.87-1.86C830.37,72.33,822.94,66,811.9,66c-9.48,0-17.65,6.41-18.67,17.64Z"/><path d="M661.24,147.87c0,5-7.58,5-7.58,0S661.24,142.87,661.24,147.87Z"/><path d="M672.88,140.5c.42,3.21,3.21,5.53,7.74,5.53,2.37,0,5.47-.9,7-2.43l4.11,4.06c-2.74,2.84-7.22,4.21-11.17,4.21-9,0-14.27-5.53-14.27-13.85,0-7.9,5.37-13.58,13.8-13.58,8.69,0,14.11,5.37,13.11,16.06ZM687,135.18c-.42-3.37-3.06-5.06-6.74-5.06-3.48,0-6.32,1.69-7.27,5.06Z"/><path d="M724.43,125.17l-11.06,26.12h-7l-11.11-26.12h7l3.58,8.59,4,11,4-10.85,3.58-8.69Z"/><path d="M733,140.5c.42,3.21,3.21,5.53,7.74,5.53,2.37,0,5.48-.9,7-2.43l4.11,4.06c-2.74,2.84-7.21,4.21-11.16,4.21-8.95,0-14.27-5.53-14.27-13.85,0-7.9,5.37-13.58,13.79-13.58,8.69,0,14.12,5.37,13.12,16.06Zm14.11-5.32c-.42-3.37-3-5.06-6.74-5.06-3.47,0-6.31,1.69-7.26,5.06Z"/><path d="M777.35,151.19V137.6c0-3.95-2.16-6.95-6.27-6.95-4,0-6.63,3.32-6.63,7.27v13.27h-6.37v-26h5.74l.42,3.53c2.63-2.58,5.26-3.9,8.53-3.9,6.11,0,11,4.58,11,12.75v13.64Z"/><path d="M797.26,117.91v7.37h7.16v5.53H797.2V142c0,2.48,1.37,3.69,3.37,3.69a7.42,7.42,0,0,0,3.11-.79l1.79,5.48a14.42,14.42,0,0,1-5.32,1.1c-5.63.21-9.32-3-9.32-9.48V130.81H786v-5.53h4.84v-6.69Z"/><path d="M826.16,132.12a8.77,8.77,0,0,0-6.42-2.31c-3.06,0-4.74.94-4.74,2.58s1.53,2.63,4.85,2.84c4.89.32,11.11,1.42,11.11,8.32,0,4.58-3.74,8.53-11.17,8.53-4.11,0-8.21-.68-12-4.63l3.15-4.58c1.85,2,6.06,3.58,9,3.63,2.42.05,4.68-1.21,4.68-3.11s-1.47-2.53-5.16-2.74c-4.89-.36-10.74-2.15-10.74-8.05s6.21-8.11,11-8.11c4.06,0,7.11.79,10.11,3.42Z"/><path class="cls-1" d="M295.54,144.08H289l-.87,2.31h-5l7-16.91h4.37l7,16.91h-5Zm-1.47-3.88-1.8-4.85-1.83,4.85Z"/><path class="cls-1" d="M305.77,129.48h2.9l9.56,9-.12-9h4.71v16.91h-2.88l-9.55-9,.09,9h-4.71Z"/><path class="cls-1" d="M343.82,129.48,338,140.77v5.62h-4.71v-5.62l-5.83-11.29h5l3.2,7.13,3.18-7.13Z"/><path class="cls-1" d="M368.29,133.36h-4.87v13h-4.71v-13h-4.86v-3.88h14.44Z"/><path class="cls-1" d="M373.15,129.48h4.71v16.91h-4.71Z"/><path class="cls-1" d="M399.64,146.39l-.52-9.07-4,9.07h-2.47l-3.93-9-.55,9h-4.7l1.25-16.91H390l3.89,9.09,3.88-9.09h5.28l1.26,16.91Z"/><path class="cls-1" d="M422.7,142.5v3.89H410V129.48h12.55v3.88H414.7v2.56h7v3.89h-7v2.69Z"/><path class="cls-1" d="M428.22,142.34h5.21l-2.24,7.36H426.6Z"/><path class="cls-1" d="M456.79,144.08h-6.58l-.87,2.31h-5l7-16.91h4.36l7,16.91h-5Zm-1.46-3.88-1.81-4.85-1.83,4.85Z"/><path class="cls-1" d="M467,129.48h2.91l9.55,9-.11-9h4.7v16.91h-2.88l-9.55-9,.09,9H467Z"/><path class="cls-1" d="M505.07,129.48l-5.82,11.29v5.62h-4.71v-5.62l-5.83-11.29h5l3.2,7.13,3.18-7.13Z"/><path class="cls-1" d="M531,135.26c0,3.66-2.6,6.1-6.56,6.1h-2.6v5h-4.71V129.48h7.56C528.45,129.48,531,131.78,531,135.26Zm-4.84.16a1.88,1.88,0,0,0-2-2.06H521.8v4.12h2.37A1.84,1.84,0,0,0,526.12,135.42Z"/><path class="cls-1" d="M547.62,142.5v3.89H536V129.48h4.71v13Z"/><path class="cls-1" d="M563.07,144.08h-6.59l-.87,2.31h-5l7-16.91H562l7,16.91h-5Zm-1.47-3.88-1.8-4.85L558,140.2Z"/><path class="cls-1" d="M571.72,137.86c0-5.18,3.75-8.61,9.37-8.61a9,9,0,0,1,6.95,2.69l-2.95,3a4.71,4.71,0,0,0-4-1.83c-2.72,0-4.53,1.92-4.53,4.78a4.48,4.48,0,0,0,4.66,4.82,4.55,4.55,0,0,0,4.23-2.44l3.16,2.83a8.77,8.77,0,0,1-7.5,3.5C575.52,146.62,571.72,143.1,571.72,137.86Z"/><path class="cls-1" d="M606,142.5v3.89H593.25V129.48H605.8v3.88H598v2.56h7v3.89h-7v2.69Z"/></svg>